# AST/ASF file generated using VICON BodyLanguage
# -----------------------------------------------
:version 1.10
:name VICON
:units
  mass 1.0
  length 0.45
  angle deg
:documentation
   .ast/.asf automatically generated from VICON data using
   VICON BodyBuilder and BodyLanguage model FoxedUp or BRILLIANT.MOD
:root
   order TX TY TZ RX RY RZ
   axis XYZ
   position 0 0 0  
   orientation 0 -0 0 
:bonedata
  begin
     id 1 
     name lhipjoint
     direction 0.500677 -0.737119 0.453848 
     length 2.34727 
     axis 0 -0 0  XYZ
  end
  begin
     id 2 
     name lfemur
     direction 0.34202 -0.939693 0  
     length 7.53653  
     axis 0 -0 20  XYZ
    dof rx ry rz
    limits (-160.0 20.0)
           (-70.0 70.0)
           (-60.0 70.0)
  end
  begin
     id 3 
     name ltibia
     direction 0.34202 -0.939693 0   
     length 6.85572   
     axis 0 -0 20   XYZ
    dof rx
    limits (-10.0 170.0)
  end
  begin
     id 4 
     name lfoot
     direction 0.155313 -0.426718 0.890949   
     length 2.18324   
     axis -90 -1.13533e-015 20   XYZ
    dof rx rz
    limits (-45.0 90.0)
           (-70.0 20.0)
  end
  begin
     id 5 
     name ltoes
     direction 1.53474e-011 -4.21647e-011 1   
     length 1.06748   
     axis -90 -1.13533e-015 20   XYZ
    dof rx
    limits (-90.0 20.0)
  end
  begin
     id 6 
     name rhipjoint
     direction -0.632471 -0.659587 0.406111   
     length 2.62319  
     axis 0 -0 0  XYZ 
  end
  begin
     id 7 
     name rfemur
     direction -0.34202 -0.939693 0   
     length 7.21735   
     axis 0 -0 -20   XYZ
    dof rx ry rz
    limits (-160.0 20.0)
           (-70.0 70.0)
           (-70.0 60.0)
  end
  begin
     id 8 
     name rtibia
     direction -0.34202 -0.939693 0   
     length 7.02558   
     axis 0 -0 -20   XYZ
    dof rx
    limits (-10.0 170.0)
 end
 begin
     id 9 
     name rfoot
     direction -0.16057 -0.441164 0.882945   
     length 2.10014  
     axis -90 1.13533e-015 -20   XYZ
    dof rx rz
    limits (-45.0 90.0)
           (-20.0 70.0)
  end
  begin
     id 10 
     name rtoes
     direction -1.53553e-011 -4.2192e-011 1   
     length 1.02554   
     axis -90 1.13533e-015 -20   XYZ
    dof rx
    limits (-90.0 20.0)
  end
  begin
     id 11 
     name lowerback
     direction 0.0401429 0.998861 -0.0258085   
     length 1.80848   
     axis 0 -0 0   XYZ
    dof rx ry rz
    limits (-20.0 45.0)
           (-30.0 30.0)
           (-30.0 30.0)
  end
  begin
     id 12 
     name upperback
     direction -0.0130978 0.999914 -0.000352645   
     length 1.8116   
     axis 0 -0 0   XYZ
    dof rx ry rz
    limits (-20.0 45.0)
           (-30.0 30.0)
           (-30.0 30.0)
  end
  begin
     id 13 
     name thorax
     direction -0.0300198 0.999453 0.0138573   
     length 1.81778   
     axis 0 -0 0   XYZ
    dof rx ry rz
    limits (-20.0 45.0)
           (-30.0 30.0)
           (-30.0 30.0)
  end
  begin
     id 14 
     name lowerneck
     direction -0.0401726 0.999191 -0.00173647   
     length 2.10594   
     axis 0 -0 0   XYZ
    dof rx ry rz
    limits (-20.0 45.0)
           (-30.0 30.0)
           (-30.0 30.0)
  end
  begin
     id 15 
     name upperneck
     direction 0.0119835 0.998501 0.0534085   
     length 2.07325   
     axis 0 -0 0   XYZ
    dof rx ry rz
    limits (-20.0 45.0)
           (-30.0 30.0)
           (-30.0 30.0)
  end
  begin
     id 16
     name head
     direction 0.00628309 0.999826 0.0175921  
     length 2.15096  
     axis 0 -0 0   XYZ
    dof rx ry rz
    limits (-20.0 45.0)
           (-30.0 30.0)
           (-30.0 30.0)
  end
  begin
     id 17 
     name lclavicle
     direction 0.895501 0.429681 -0.115981  
     length 4.18092  
     axis 0 -0 0   XYZ
    dof ry rz
    limits (-20.0 10.0)
           (0.0 20.0)
  end
  begin
     id 18 
     name lhumerus
     direction 1 -4.48961e-011 -3.38433e-028   
     length 5.77237   
     axis 180 -30 -90   XYZ
    dof rx ry rz
    limits (-60.0 90.0)
           (-90.0 90.0)
           (-90.0 90.0)
  end
  begin
     id 19
     name lradius
     direction 1 -4.4901e-011 1.11983e-026   
     length 2.91878   
     axis 180 -30 -90   XYZ
    dof rx
    limits (-10.0 170.0)
  end
  begin
     id 20
     name lwrist
     direction 1 -4.48934e-011 1.88176e-026   
     length 1.45939   
     axis -1.23311e-014 90 90   XYZ
    dof ry
    limits (-180.0 0.0)
 end
  begin
     id 21 
     name lhand
     direction 1 -4.4895e-011 3.76352e-026   
     length 1.06566   
     axis -2.40147e-014 90 90   XYZ
    dof rx rz
    limits (-90.0 90.0)
           (-45.0 45.0)
  end
  begin
     id 22 
     name lfingers
     direction 1 -4.49005e-011 7.52705e-026   
     length 0.859162   
     axis -4.80295e-014 90 90   XYZ
    dof rx
    limits (0.0 90.0)
  end
  begin
     id 23
     name lthumb
     direction 0.707107 -6.34885e-011 0.707107   
     length 1.23359   
     axis -90 45 -9.86935e-015   XYZ
    dof rx rz
    limits (-45.0 45.0)
           (-45.0 45.0)
  end
  begin
     id 24 
     name rclavicle
     direction -0.91006 0.40451 -0.0903492   
     length 4.23293  
     axis 0 -0 0   XYZ 
    dof ry rz
    limits (-10.0 20.0)
           (-20.0 0.0)
  end
  begin
     id 25 
     name rhumerus
     direction -1 -4.4897e-011 1.7415e-027  
     length 5.49854   
     axis 180 30 90   XYZ
    dof rx ry rz
    limits (-90.0 60.0)
           (-90.0 90.0)
           (-90.0 90.0)
  end
  begin
     id 26 
     name rradius
     direction -1 -4.48963e-011 1.21259e-026   
     length 3.1186   
     axis 180 30 90   XYZ
    dof rx
    limits (-10.0 170.0)
  end
  begin
     id 27 
     name rwrist
     direction -1 -4.48967e-011 1.88176e-026   
     length 1.5593   
     axis -1.23311e-014 -90 -90   XYZ
    dof ry
    limits (-180.0 0.0)
  end
  begin
     id 28
     name rhand
     direction -1 -4.4895e-011 3.76352e-026   
     length 0.71207   
     axis -2.40147e-014 -90 -90   XYZ
    dof rx rz
    limits (-90.0 90.0)
           (-45.0 45.0)
  end
  begin
     id 29
     name rfingers
     direction -1 -4.49005e-011 7.52705e-026   
     length 0.574089   
     axis -4.80295e-014 -90 -90   XYZ
    dof rx
    limits (0.0 90.0)
  end
  begin
     id 30
     name rthumb
     direction -0.707107 -6.34982e-011 0.707107   
     length 0.824281   
     axis -90 -45 9.86935e-015   XYZ
    dof rx rz
    limits (-45.0 45.0)
           (-45.0 45.0)
  end
:hierarchy
  begin
    root lhipjoint rhipjoint lowerback
    lhipjoint lfemur
    lfemur ltibia
    ltibia lfoot
    lfoot ltoes
    rhipjoint rfemur
    rfemur rtibia
    rtibia rfoot
    rfoot rtoes
    lowerback upperback
    upperback thorax
    thorax lowerneck lclavicle rclavicle
    lowerneck upperneck
    upperneck head
    lclavicle lhumerus
    lhumerus lradius
    lradius lwrist
    lwrist lhand lthumb
    lhand lfingers
    rclavicle rhumerus
    rhumerus rradius
    rradius rwrist
    rwrist rhand rthumb
    rhand rfingers
  end

#!OML:ASF C:\ViconDB\ViconDB\414\Spring2016\042216\male.ASF
:FULLY-SPECIFIED
:DEGREES
32
root 2.25298 17.5849 9.30373 -177.686 71.5061 -179.423
lowerback -3.29505 -1.81842 2.94084
upperback -0.236839 -2.51637 -0.741526
thorax 1.44278 -1.23531 -2.51886
lowerneck 1.43272 11.3095 0.891033
upperneck 0.79168 15.3091 -7.70537
head 0.728213 7.69561 -2.45304
rclavicle 9.69269e-015 -3.97569e-015
rhumerus -31.9408 -3.28531 -92.1299
rradius 27.5677
rwrist 29.4307
rhand 12.443 -19.5368
rfingers 7.12502
rthumb 37.4396 -45.4864
lclavicle 9.69269e-015 -3.97569e-015
lhumerus -36.1188 17.8221 85.4208
lradius 30.9153
lwrist -18.8301
lhand -4.01261 14.3594
lfingers 7.12502
lthumb 21.7418 43.1584
rfemur 2.6636 6.36423 16.6218
rtibia 5.64704
rfoot -11.2469 -5.35295
rtoes -7.44955
lfemur -4.68912 -8.71386 -15.1722
ltibia 15.0176
lfoot -18.4351 16.0839
ltoes -15.7709
33
root 2.2548 17.5842 9.3035 -177.71 71.5 -179.456
lowerback -3.28533 -1.81193 2.94718
upperback -0.231914 -2.50789 -0.735223
thorax 1.44296 -1.23101 -2.51535
lowerneck 1.42585 11.2864 0.897324
upperneck 0.786463 15.2802 -7.75078
head 0.730858 7.68154 -2.46853
rclavicle -1.88471e-014 3.8763e-015
rhumerus -31.9345 -3.30806 -92.1019
rradius 27.5735
rwrist 29.4268
rhand 12.3905 -19.5169
rfingers 7.12502
rthumb 37.3899 -45.4795
lclavicle -1.88471e-014 3.8763e-015
lhumerus -36.0472 17.6959 85.5706
lradius 30.9575
lwrist -18.4643
lhand -3.97091 14.5732
lfingers 7.12502
lthumb 21.7819 43.3675
rfemur 2.66165 6.35712 16.6076
rtibia 5.6403
rfoot -11.2393 -5.35932
rtoes -7.5112
lfemur -4.69274 -8.69069 -15.1795
ltibia 15.0187
lfoot -18.4662 16.0603
ltoes -15.8072
34
root 2.25476 17.5835 9.30385 -177.57 71.4835 -179.31
lowerback -3.22167 -1.80419 3.01614
upperback -0.231952 -2.49855 -0.71997
thorax 1.40561 -1.22669 -2.53549
lowerneck 1.43032 11.2687 0.882725
upperneck 0.755714 15.2546 -7.7664
head 0.719316 7.66966 -2.47312
rclavicle -3.16855e-014 -6.31141e-015
rhumerus -31.8392 -3.45922 -92.0386
rradius 27.4136
rwrist 29.5609
rhand 12.32 -19.4285
rfingers 7.12502
rthumb 37.3233 -45.4086
lclavicle -3.16855e-014 -6.31141e-015
lhumerus -35.9774 17.662 85.6082
lradius 30.9305
lwrist -18.5061
lhand -3.80277 14.5093
lfingers 7.12502
lthumb 21.9433 43.2847
rfemur 2.663 6.34266 16.6655
rtibia 5.63927
rfoot -11.2513 -5.34179
rtoes -7.49905
lfemur -4.69486 -8.72551 -15.1227
ltibia 15.0131
lfoot -18.3985 16.088
ltoes -15.8677
35
root 2.2545 17.585 9.30568 -177.551 71.4405 -179.326
lowerback -3.17332 -1.82698 2.98359
upperback -0.255211 -2.52617 -0.703022
thorax 1.35499 -1.24188 -2.49848
lowerneck 1.43776 11.2755 0.886516
upperneck 0.749505 15.2637 -7.7787
head 0.717928 7.67463 -2.47809
rclavicle 4.00307e-015 9.93923e-016
rhumerus -31.8308 -3.54838 -91.9991
rradius 27.3921
rwrist 29.6527
rhand 12.2956 -19.4514
rfingers 7.12502
rthumb 37.3002 -45.4376
lclavicle 4.00307e-015 9.93923e-016
lhumerus -35.9312 17.1886 85.8689
lradius 31.0564
lwrist -17.8997
lhand -3.91383 14.7489
lfingers 7.12502
lthumb 21.8367 43.5368
rfemur 2.62751 6.29783 16.673
rtibia 5.65879
rfoot -11.2661 -5.34137
rtoes -7.42959
lfemur -4.7416 -8.62276 -15.1028
ltibia 15.0003
lfoot -18.3607 15.9404
ltoes -15.8469
36
root 2.25515 17.5857 9.3054 -177.595 71.4416 -179.379
lowerback -3.12735 -1.83439 2.9389
upperback -0.262663 -2.53334 -0.682924
thorax 1.32397 -1.2464 -2.45113
lowerneck 1.43387 11.273 0.852276
upperneck 0.75986 15.2603 -7.7602
head 0.71732 7.67256 -2.46645
rclavicle 9.72007e-015 -8.19987e-015
rhumerus -31.8158 -3.56868 -91.9608
rradius 27.3507
rwrist 29.6832
rhand 12.2388 -19.4437
rfingers 7.12502
rthumb 37.2465 -45.4441
lclavicle 9.72007e-015 -8.19987e-015
lhumerus -35.9576 17.6059 85.6956
lradius 30.9582
lwrist -18.5678
lhand -3.71586 14.406
lfingers 7.12502
lthumb 22.0268 43.1717
rfemur 2.60876 6.29794 16.655
rtibia 5.68755
rfoot -11.2684 -5.3446
rtoes -7.4178
lfemur -4.73614 -8.60533 -15.1251
ltibia 14.974
lfoot -18.384 15.9356
ltoes -15.9517
37
root 2.25625 17.5853 9.30401 -177.685 71.4643 -179.474
lowerback -3.0895 -1.84574 2.96095
upperback -0.260917 -2.54761 -0.722403
thorax 1.3009 -1.25377 -2.50313
lowerneck 1.42658 11.2787 0.853766
upperneck 0.747672 15.2636 -7.7037
head 0.709952 7.67367 -2.44894
rclavicle -2.94916e-015 -1.98785e-016
rhumerus -31.8075 -3.6583 -91.9971
rradius 27.3304
rwrist 29.8259
rhand 12.2147 -19.4073
rfingers 7.12502
rthumb 37.2238 -45.4136
lclavicle -2.94916e-015 -1.98785e-016
lhumerus -36.0385 17.4501 85.762
lradius 31.1207
lwrist -18.3438
lhand -3.75353 14.5512
lfingers 7.12502
lthumb 21.9906 43.3211
rfemur 2.57425 6.31961 16.6172
rtibia 5.74778
rfoot -11.306 -5.34794
rtoes -7.48271
lfemur -4.69795 -8.65581 -15.165
ltibia 14.9242
lfoot -18.4192 15.9722
ltoes -15.8373
38
root 2.25719 17.5851 9.30182 -177.79 71.5438 -179.586
lowerback -3.03114 -1.8277 2.92135
upperback -0.270679 -2.5205 -0.715311
thorax 1.26197 -1.24127 -2.47024
lowerneck 1.41616 11.2809 0.852803
upperneck 0.763962 15.2684 -7.71164
head 0.717723 7.67558 -2.44986
rclavicle 5.23741e-015 6.95746e-016
rhumerus -31.8265 -3.55186 -92.0122
rradius 27.3314
rwrist 29.7483
rhand 12.1421 -19.4359
rfingers 7.12502
rthumb 37.1552 -45.4601
lclavicle 5.23741e-015 6.95746e-016
lhumerus -36.0873 17.4064 85.8106
lradius 31.1722
lwrist -18.4635
lhand -3.65247 14.3867
lfingers 7.12502
lthumb 22.0876 43.1452
rfemur 2.54867 6.39738 16.5603
rtibia 5.76371
rfoot -11.291 -5.33155
rtoes -7.48499
lfemur -4.6564 -8.66101 -15.2197
ltibia 14.8909
lfoot -18.3483 16.0585
ltoes -15.7519
39
root 2.25697 17.5863 9.3004 -177.809 71.5728 -179.616
lowerback -2.97532 -1.83381 2.95536
upperback -0.27044 -2.52793 -0.736939
thorax 1.22803 -1.24542 -2.50961
lowerneck 1.40163 11.2974 0.962266
upperneck 0.749627 15.2937 -7.79434
head 0.732945 7.68849 -2.49158
rclavicle 4.26256e-014 5.06901e-015
rhumerus -31.823 -3.56765 -92.0726
rradius 27.3248
rwrist 29.7369
rhand 12.027 -19.4883
rfingers 7.12502
rthumb 37.0463 -45.5408
lclavicle 4.26256e-014 5.06901e-015
lhumerus -36.0718 17.4833 85.7137
lradius 31.1495
lwrist -18.772
lhand -3.3493 14.2029
lfingers 7.12502
lthumb 22.3787 42.9267
rfemur 2.50778 6.42542 16.5361
rtibia 5.79293
rfoot -11.2765 -5.3378
rtoes -7.54342
lfemur -4.64751 -8.61986 -15.2359
ltibia 14.852
lfoot -18.3417 16.0571
ltoes -15.7976
40
root 2.2577 17.5875 9.29974 -177.619 71.5851 -179.423
lowerback -2.94069 -1.80883 3.06792
upperback -0.253398 -2.49775 -0.73265
thorax 1.22349 -1.22975 -2.56628
lowerneck 1.41112 11.2841 0.958014
upperneck 0.671384 15.2703 -7.81621
head 0.706932 7.67874 -2.50178
rclavicle 9.54328e-014 2.5345e-015
rhumerus -31.8509 -3.68097 -92.0624
rradius 27.423
rwrist 29.8594
rhand 12.0424 -19.5761
rfingers 7.12502
rthumb 37.0608 -45.6248
lclavicle 9.54328e-014 2.5345e-015
lhumerus -35.9739 17.381 85.7181
lradius 31.0683
lwrist -18.8648
lhand -3.19604 14.049
lfingers 7.12502
lthumb 22.5258 42.7551
rfemur 2.48722 6.4399 16.5999
rtibia 5.79853
rfoot -11.2547 -5.32889
rtoes -7.50268
lfemur -4.6398 -8.65343 -15.1706
ltibia 14.8223
lfoot -18.361 16.1044
ltoes -15.6307
41
root 2.25687 17.5878 9.29993 -177.677 71.6447 -179.499
lowerback -2.86345 -1.7908 3.05545
upperback -0.260037 -2.47107 -0.721619
thorax 1.1762 -1.21748 -2.54402
lowerneck 1.42261 11.2804 0.885916
upperneck 0.6154 15.2606 -7.82041
head 0.681332 7.67563 -2.49498
rclavicle -5.70515e-014 3.32964e-015
rhumerus -31.8662 -3.64943 -92.0515
rradius 27.4362
rwrist 29.8581
rhand 12.0199 -19.5397
rfingers 7.12502
rthumb 37.0396 -45.5939
lclavicle -5.70515e-014 3.32964e-015
lhumerus -35.9406 17.3343 85.8003
lradius 31.095
lwrist -18.7983
lhand -3.17489 14.1657
lfingers 7.12502
lthumb 22.5461 42.8693
rfemur 2.45502 6.49763 16.5665
rtibia 5.79325
rfoot -11.2313 -5.31603
rtoes -7.49761
lfemur -4.63308 -8.60408 -15.1968
ltibia 14.7925
lfoot -18.3149 16.1057
ltoes -15.846
